<?xml version="1.0" standalone="no"?><!DOCTYPE svg PUBLIC "-//W3C//DTD SVG 1.1//EN"
		"http://www.w3.org/Graphics/SVG/1.1/DTD/svg11.dtd">
<svg t="1594198547313" class="icon" viewBox="0 0 1024 1024" version="1.1" xmlns="http://www.w3.org/2000/svg" p-id="2098"
     width="16" height="16">
	<defs>
		<style type="text/css"></style>
	</defs>
	<path d="M512 901.12a389.12 389.12 0 1 1 389.12-389.12 389.5296 389.5296 0 0 1-389.12 389.12z m0-737.28a348.16 348.16 0 1 0 348.16 348.16A348.5696 348.5696 0 0 0 512 163.84z"
	      p-id="2099"></path>
	<path d="M491.52 225.28h40.96v81.92h-40.96zM225.28 491.52h81.92v40.96h-81.92zM491.52 716.8h40.96v81.92h-40.96zM716.8 491.52h81.92v40.96h-81.92zM512 541.0816L374.784 403.456l28.672-28.672 108.544 108.1344 169.984-169.5744 28.672 28.672-198.656 199.0656z"
	      p-id="2100"></path>
</svg>